<svg width="43" height="37" viewBox="0 0 43 37" fill="none" xmlns="http://www.w3.org/2000/svg">
<path d="M41.9202 18.846C41.9202 28.5328 32.8025 36.5001 21.4033 36.5001C10.0041 36.5001 0.886438 28.5328 0.886438 18.846C0.886438 9.15922 10.0041 1.19198 21.4033 1.19198C32.8025 1.19198 41.9202 9.15922 41.9202 18.846Z" fill="#FF007E" stroke="white" stroke-width="0.954273"/>
<path d="M27.2542 19.799C26.5889 19.6598 25.9623 19.4741 25.3743 19.2421C24.7864 18.9945 24.2681 18.6773 23.8194 18.2905C23.3862 17.9037 23.0381 17.4473 22.7751 16.9213C22.5275 16.3797 22.4037 15.7531 22.4037 15.0414C22.4037 14.2524 22.5894 13.5638 22.9607 12.9759C23.332 12.388 23.8194 11.9006 24.4228 11.5138C25.0262 11.1115 25.707 10.8098 26.4651 10.6087C27.2232 10.4076 27.9891 10.307 28.7627 10.307C29.5982 10.307 30.3795 10.4076 31.1067 10.6087C31.8339 10.7944 32.4837 11.0961 33.0562 11.5138C33.6286 11.9161 34.1083 12.4344 34.4951 13.0687C34.8973 13.6876 35.1836 14.438 35.3537 15.3199H32.4992C32.3754 14.8093 32.182 14.3916 31.919 14.0667C31.656 13.7263 31.3465 13.4633 30.9907 13.2776C30.6348 13.0765 30.248 12.9372 29.8303 12.8599C29.428 12.767 29.018 12.7206 28.6002 12.7206C28.2753 12.7206 27.9195 12.7593 27.5327 12.8367C27.1614 12.914 26.8132 13.0455 26.4883 13.2312C26.1789 13.4014 25.9159 13.6257 25.6993 13.9042C25.4826 14.1827 25.3743 14.5308 25.3743 14.9486C25.3743 15.5984 25.6064 16.1012 26.0706 16.4571C26.5502 16.7975 27.1536 17.0373 27.8808 17.1765L29.9463 17.5711C30.689 17.7103 31.4007 17.896 32.0814 18.1281C32.7777 18.3447 33.3888 18.6464 33.9149 19.0332C34.4564 19.42 34.8896 19.8996 35.2145 20.4721C35.5394 21.0445 35.7019 21.7562 35.7019 22.6072C35.7019 23.4582 35.5085 24.2085 35.1217 24.8584C34.7349 25.4927 34.2243 26.0265 33.5899 26.4597C32.9711 26.8775 32.2594 27.1946 31.4548 27.4112C30.6657 27.6278 29.8535 27.7361 29.018 27.7361C28.0123 27.7361 27.0917 27.6046 26.2562 27.3416C25.4362 27.0786 24.7168 26.6995 24.0979 26.2044C23.4945 25.6938 23.0071 25.075 22.6358 24.3478C22.2645 23.6206 22.0324 22.7929 21.9396 21.8645H24.8406C25.1036 23.0249 25.5987 23.8914 26.3259 24.4638C27.0531 25.0363 27.9968 25.3225 29.1572 25.3225C29.6523 25.3225 30.1165 25.2684 30.5497 25.1601C30.9984 25.0518 31.3852 24.8893 31.7101 24.6727C32.035 24.4561 32.2903 24.1931 32.476 23.8836C32.6616 23.5587 32.7545 23.1951 32.7545 22.7929C32.7545 22.3596 32.6462 21.9961 32.4295 21.7021C32.2284 21.4081 31.9577 21.1606 31.6173 20.9594C31.2924 20.7583 30.921 20.6036 30.5033 20.4953C30.101 20.3715 29.6988 20.2709 29.2965 20.1936L27.2542 19.799Z" fill="white"/>
<path d="M9.36093 10.6088L13.6312 23.9533L17.7854 10.6088H20.8953L15.1397 27.4345H11.9834L6.15823 10.6088H9.36093Z" fill="white"/>
</svg>
